<svg id="Capa_1" enable-background="new 0 0 512 512" height="512" viewBox="0 0 512 512" width="512" xmlns="http://www.w3.org/2000/svg"><g><path d="m471.72 446.895-67.702-135.895h-103.485c-6.276 18.58-23.86 32-44.531 32s-38.255-13.42-44.531-32h-103.484l-67.693 135.875c-14.976 29.953 6.833 65.125 40.249 65.125h350.918c33.525 0 55.172-35.276 40.259-65.105zm-279.718.105c-25.916 0-47-21.084-47-47s21.084-47 47-47 47 21.084 47 47-21.084 47-47 47zm110.93-13.52c-.882 8.496-8.448 14.267-16.41 13.45-8.543-.886-14.268-8.493-13.44-16.4.67-8.298 8.648-14.971 17.85-13.24 7.3 1.522 12.669 7.993 12 16.19zm16-64c-.813 7.839-7.576 14.17-16.4 13.45-8.522-.867-14.281-8.483-13.46-16.4.874-8.596 8.824-14.94 17.86-13.24 7.954 1.659 12.748 8.893 12 16.19zm48 32c-.883 8.513-8.462 14.266-16.41 13.45-8.536-.886-14.27-8.497-13.45-16.4.872-8.579 8.801-14.945 17.86-13.24 7.985 1.665 12.744 8.931 12 16.19z"/><path d="m159.002 30h18v142.47l-54.069 108.53h88.538c6.276-18.58 23.86-32 44.531-32s38.255 13.42 44.531 32h88.538l-54.07-108.53v-142.47h18c8.284 0 15-6.716 15-15s-6.716-15-15-15c-46.047 0-153.671 0-194 0-8.284 0-15 6.716-15 15s6.717 15 15.001 15z"/><circle cx="256.002" cy="296" r="17"/><circle cx="192.002" cy="400" r="17"/></g></svg>