<svg version="1.1" id="Capa_1" xmlns="http://www.w3.org/2000/svg" xmlns:xlink="http://www.w3.org/1999/xlink" x="0px" y="0px"
	 viewBox="0 0 511.997 511.997" style="enable-background:new 0 0 511.997 511.997;" xml:space="preserve">
<g>
	<g>
		<path d="M511.765,440.141c-0.937-5.347-4.702-9.771-9.843-11.558c-2.52-0.894-63.593-21.416-131.913-9.302
			c-42.697,7.515-78.012,25.869-99.009,38.998v-69.773l9.111,1.049c7.661,0.879,15.293,1.318,22.91,1.318
			c63.574,0,125.292-30.249,163.393-82.134c2.974-4.043,3.721-9.302,2.007-14.004c-1.714-4.717-5.669-8.262-10.547-9.448
			C391.376,269.105,320.34,288.37,271,335.099v-64.276c19.786-0.134,53.943-3.367,85.444-21.555
			c46.802-27.041,69.32-75.967,70.214-78.032c1.875-4.351,1.597-9.346-0.776-13.447s-6.548-6.855-11.25-7.397
			c-2.271-0.278-56.386-6.094-103.188,20.933c-16.666,9.622-29.982,22.015-40.444,34.085v-34.248c8.736-11.224,30-42.332,30-80.272
			c0-46.611-32.432-84.452-33.809-85.99c-5.713-6.387-16.67-6.387-22.383,0C243.432,6.437,211,44.278,211,90.889
			c0,37.939,21.264,69.047,30,80.272v34.248c-10.463-12.07-23.778-24.463-40.444-34.085
			c-46.802-27.026-99.917-21.211-102.188-20.933c-4.702,0.542-8.877,3.296-11.25,7.397c-2.373,4.101-2.651,9.097-0.776,13.447
			c0.894,2.065,22.412,50.991,69.214,78.032c31.501,18.188,65.658,21.421,85.444,21.555v64.266
			c-49.362-46.721-119.394-65.982-185.874-49.801c-4.878,1.187-8.833,4.731-10.547,9.448c-1.714,4.702-0.967,9.961,2.007,14.004
			c38.101,51.885,98.818,82.134,162.393,82.134c7.603,0,15.264-0.439,22.91-1.318l9.111-1.049v67.63
			c-21.295-12.924-55.849-29.725-96.361-36.855c-68.35-12.07-132.029,8.423-134.563,9.302c-5.142,1.787-8.906,6.211-9.844,11.558
			c-0.952,5.361,1.069,10.796,5.288,14.238c2.065,1.685,55.154,41.484,123.489,53.525c38,6.7,81.746,3.693,113.87-4.135
			c2.51,4.764,7.355,8.119,13.121,8.119c6.081,0,11.254-3.647,13.61-8.844c32.794,8.503,78.25,11.702,117.028,4.86
			c68.335-12.041,117.773-51.841,119.839-53.525C510.696,450.937,512.717,445.501,511.765,440.141z"/>
	</g>
</g>
<g>
</g>
<g>
</g>
<g>
</g>
<g>
</g>
<g>
</g>
<g>
</g>
<g>
</g>
<g>
</g>
<g>
</g>
<g>
</g>
<g>
</g>
<g>
</g>
<g>
</g>
<g>
</g>
<g>
</g>
</svg>
