<svg id="Capa_1" enable-background="new 0 0 511.892 511.892" height="512" viewBox="0 0 511.892 511.892" width="512" xmlns="http://www.w3.org/2000/svg"><g><path d="m112.411 38.257c-8.284 0-15 6.716-15 15s6.716 15 15 15h19.658v-30z"/><path d="m252.384 38.257v30h42.302c2.17-10.554 5.701-20.614 10.388-30z"/><path d="m3.726 363.593c0 30.322 7.018 59.259 20.858 86.007 12.475 24.108 30.347 45.556 51.866 62.292h231.551c21.52-16.736 39.393-38.184 51.867-62.292 13.84-26.748 20.857-55.685 20.857-86.007 0-81.695-52.566-151.37-125.744-177.204h-125.511c-73.178 25.834-125.744 95.508-125.744 177.204z"/><path d="m141.267 113.138v43.25h101.918v-43.25c0-3.177-2.585-5.762-5.762-5.762h-.04-90.314-.04c-3.177 0-5.762 2.585-5.762 5.762z"/><path d="m216.622.238h-48.791c-3.177 0-5.762 2.584-5.762 5.762v71.377h60.314v-71.377c.001-3.178-2.584-5.762-5.761-5.762z"/><ellipse cx="415.166" cy="93.11" rx="93" ry="93.11"/></g></svg>