<svg id="Capa_1" enable-background="new 0 0 512 512" height="512" viewBox="0 0 512 512" width="512" xmlns="http://www.w3.org/2000/svg"><g><path d="m279.813 512c62.9 0 123.428-23.335 170.449-65.698l35.757-32.227-47.739 6.211c-7.705.996-15.498 1.714-23.467 1.714-99.258 0-180-81.742-180-181 0-93.838 70.459-171.874 163.887-180.18l48.149-4.277-42.114-23.73c-38.101-21.46-81.299-32.813-124.922-32.813-140.61 0-256 115.39-256 256s115.39 256 256 256z"/><path d="m431.38 186.317-31.567-47.358-31.567 47.358-56.807 3.662 25.239 51.021-25.239 51.021 56.807 3.662 31.567 47.358 31.567-47.358 56.807-3.662-25.239-51.021 25.239-51.021z"/></g></svg>