<svg height="512pt" viewBox="0 -120 512 512" width="512pt" xmlns="http://www.w3.org/2000/svg"><path d="m152.738281 139.46875 88.261719-88.257812v124.828124c-33.398438-3.070312-63.859375-16.289062-88.261719-36.570312zm0 0"/><path d="m94.96875 0h161.03125c-4.140625 0-7.890625 1.679688-10.609375 4.398438l-113.859375 113.863281c-23.269531-28.011719-37.261719-64-37.261719-103.261719 0-5.058594.242188-10.058594.699219-15zm0 0"/><path d="m271 51.210938 88.261719 88.257812c-24.402344 20.28125-54.863281 33.5-88.261719 36.570312zm0 0"/><path d="m417.730469 15c0 39.261719-13.992188 75.25-37.261719 103.261719l-113.859375-113.863281c-2.71875-2.71875-6.46875-4.398438-10.609375-4.398438h161.03125c.457031 4.941406.699219 9.941406.699219 15zm0 0"/><path d="m497 0h-49.847656c.382812 4.949219.582031 9.953125.582031 15 0 105.890625-85.84375 191.734375-191.734375 191.734375s-191.734375-85.84375-191.734375-191.734375c0-5.046875.199219-10.050781.582031-15h-49.847656c-8.285156 0-15 6.730469-15 15.015625 0 142.171875 115.496094 255.984375 256 255.984375 141.585938 0 256-114.585938 256-256 0-8.285156-6.714844-15-15-15zm0 0"/></svg>