<svg height="512pt" viewBox="0 -93 512 512" width="512pt" xmlns="http://www.w3.org/2000/svg"><path d="m265.550781 7.890625-9.550781-7.890625-9.550781 7.890625c-41.488281 34.261719-65.449219 97.242187-65.449219 150.84375 0 53.886719 23.855469 104.492187 65.449219 138.84375l9.550781 7.890625 9.550781-7.890625c41.59375-34.351563 65.449219-84.957031 65.449219-138.84375 0-53.59375-23.953125-116.578125-65.449219-150.84375zm0 0"/><path d="m186.28125 275.234375c-23.171875-34.171875-35.28125-73.660156-35.28125-116.5 0-46.160156 12.078125-83.332031 27.480469-111.960937-30.277344-22.566407-56.800781-28.035157-63.878907-30.847657-1.285156 4.09375-51.539062 73.746094-15.910156 164.019531 16.167969 40.96875 46.570313 75.140626 87.589844 95.289063zm0 0"/><path d="m325.710938 275.195312c41.019531-20.140624 71.429687-54.28125 87.597656-95.25 35.664062-90.359374-14.578125-159.777343-15.910156-164.019531-6.9375 2.753907-33.679688 8.300781-63.9375 30.898438 15.417968 28.640625 27.539062 65.820312 27.539062 111.910156 0 43.308594-12.421875 82.710937-35.289062 116.460937zm0 0"/><path d="m70.78125 190.964844c-3.179688-8.070313-5.851562-16.269532-7.992188-24.539063-35.167968 5.488281-55.996093 18.734375-62.789062 21.578125 2.199219 4.074219 16.015625 85.046875 103.488281 123.019532 36.652344 15.898437 78.574219 19.410156 118.242188 8.160156-70.761719-15.820313-125.5-63.730469-150.949219-128.21875zm0 0"/><path d="m449.210938 166.425781c-2.140626 8.277344-4.8125 16.46875-7.992188 24.539063-25.429688 64.429687-80.019531 112.289062-151.039062 128.210937 39.148437 11.109375 81.164062 7.980469 118.332031-8.152343 87.167969-37.839844 101.378906-119.121094 103.488281-123.019532-6.835938-2.859375-27.609375-16.085937-62.789062-21.578125zm0 0"/></svg>