<?xml version="1.0" encoding="iso-8859-1"?>
<!-- Generator: Adobe Illustrator 19.0.0, SVG Export Plug-In . SVG Version: 6.00 Build 0)  -->
<svg version="1.1" id="Capa_1" xmlns="http://www.w3.org/2000/svg" xmlns:xlink="http://www.w3.org/1999/xlink" x="0px" y="0px"
	 viewBox="0 0 512 512" style="enable-background:new 0 0 512 512;" xml:space="preserve">
<g>
	<g>
		<path d="M190.608,0v116.477c21.03-5.843,42.981-8.864,65.392-8.864s44.362,3.021,65.392,8.864V0H190.608z M271.007,74.456h-30.015
			V45.692h30.015V74.456z"/>
	</g>
</g>
<g>
	<g>
		<path d="M54.902,280.887h186.091v-142.73C154.56,144.2,82.205,202.109,54.902,280.887z"/>
	</g>
</g>
<g>
	<g>
		<path d="M271.007,138.157v142.73h186.091C429.795,202.109,357.44,144.2,271.007,138.157z"/>
	</g>
</g>
<g>
	<g>
		<path d="M465.082,310.902H271.007v71.385h-30.015v-71.385H46.918c-2.411,12.796-3.672,25.993-3.672,39.479
			c0,62.46,27.053,121.069,74.416,161.619h276.675c47.363-40.55,74.416-99.158,74.416-161.619
			C468.754,336.895,467.493,323.698,465.082,310.902z"/>
	</g>
</g>
<g>
</g>
<g>
</g>
<g>
</g>
<g>
</g>
<g>
</g>
<g>
</g>
<g>
</g>
<g>
</g>
<g>
</g>
<g>
</g>
<g>
</g>
<g>
</g>
<g>
</g>
<g>
</g>
<g>
</g>
</svg>
