<svg id="Layer_1" enable-background="new 0 0 512 512" height="512" viewBox="0 0 512 512" width="512" xmlns="http://www.w3.org/2000/svg"><g><path d="m452.075 178.458c0-25.494-11.748-48.811-32.23-63.971-15.388-11.389-33.704-16.749-52.164-15.602-6.743-55.635-54.256-98.885-111.681-98.885s-104.938 43.25-111.681 98.885c-18.467-1.15-36.777 4.213-52.164 15.602-20.482 15.161-32.23 38.477-32.23 63.971 0 25.353 12.239 48.908 31.91 63.731-16.457 19.087-25.596 43.4-25.596 69.245 0 58.629 47.698 106.327 106.326 106.327 25.408 0 49.446-8.908 68.435-24.932v-71.559c-1.297-.685-2.515-1.571-3.606-2.663l-54.5-54.5c-5.858-5.858-5.858-15.355 0-21.213 5.857-5.858 15.355-5.858 21.213 0l36.893 36.893v-157.787c0-8.284 6.716-15 15-15s15 6.716 15 15v100.787l22.394-22.394c5.857-5.858 15.355-5.858 21.213 0s5.858 15.355 0 21.213l-43 43c-.195.195-.404.366-.606.548v127.674c18.989 16.024 43.027 24.932 68.435 24.932 58.628 0 106.326-47.698 106.326-106.327 0-25.843-9.139-50.157-25.596-69.245 19.67-14.822 31.909-38.377 31.909-63.73z"/><path d="m261.587 383.858c-3.723.186-7.451.186-11.174 0-2.971 3.2-6.118 6.19-9.413 8.97v104.172c0 8.284 6.716 15 15 15s15-6.716 15-15v-104.171c-3.295-2.781-6.442-5.77-9.413-8.971z"/></g></svg>