<?xml version="1.0" encoding="utf-8"?>
<!-- Generator: Adobe Illustrator 21.0.0, SVG Export Plug-In . SVG Version: 6.00 Build 0)  -->
<svg version="1.1" id="Слой_1" xmlns="http://www.w3.org/2000/svg" xmlns:xlink="http://www.w3.org/1999/xlink" x="0px" y="0px"
	 viewBox="0 0 300 300" style="enable-background:new 0 0 300 300;" xml:space="preserve">
<style type="text/css">
	.st0{fill:none;stroke:#000000;stroke-width:10;stroke-linecap:round;stroke-linejoin:round;stroke-miterlimit:10;}
</style>
<g>
	<path d="M150,10c37.4,0,72.6,14.6,99,41s41,61.6,41,99s-14.6,72.6-41,99s-61.6,41-99,41s-72.6-14.6-99-41s-41-61.6-41-99
		s14.6-72.6,41-99S112.6,10,150,10 M150,0C67.2,0,0,67.2,0,150s67.2,150,150,150s150-67.2,150-150S232.8,0,150,0L150,0z"/>
</g>
<polyline class="st0" points="81.7,184 151,114.7 220.3,184 "/>
</svg>
