<?xml version="1.0" encoding="utf-8"?>
<!-- Generator: Adobe Illustrator 21.0.0, SVG Export Plug-In . SVG Version: 6.00 Build 0)  -->
<svg version="1.1" id="Слой_1" xmlns="http://www.w3.org/2000/svg" xmlns:xlink="http://www.w3.org/1999/xlink" x="0px" y="0px"
	 viewBox="0 0 300 300" style="enable-background:new 0 0 300 300;" xml:space="preserve">
<path d="M69,59.2H11c-6.1,0-11-4.9-11-11V11C0,4.9,4.9,0,11,0h58c6.1,0,11,4.9,11,11v37.1C80,54.2,75.1,59.2,69,59.2z"/>
<path d="M289,59.2H111c-6.1,0-11-4.9-11-11V11c0-6.1,4.9-11,11-11h178c6.1,0,11,4.9,11,11v37.1C300,54.2,295.1,59.2,289,59.2z"/>
<path d="M69,139.4H11c-6.1,0-11-4.9-11-11V91.3c0-6.1,4.9-11,11-11h58c6.1,0,11,4.9,11,11v37.1C80,134.5,75.1,139.4,69,139.4z"/>
<path d="M289,139.4H111c-6.1,0-11-4.9-11-11V91.3c0-6.1,4.9-11,11-11h178c6.1,0,11,4.9,11,11v37.1C300,134.5,295.1,139.4,289,139.4z
	"/>
<path d="M69,219.7H11c-6.1,0-11-4.9-11-11v-37.1c0-6.1,4.9-11,11-11h58c6.1,0,11,4.9,11,11v37.1C80,214.8,75.1,219.7,69,219.7z"/>
<path d="M289,219.7H111c-6.1,0-11-4.9-11-11v-37.1c0-6.1,4.9-11,11-11h178c6.1,0,11,4.9,11,11v37.1C300,214.8,295.1,219.7,289,219.7
	z"/>
<path d="M69,300H11c-6.1,0-11-4.9-11-11v-37.1c0-6.1,4.9-11,11-11h58c6.1,0,11,4.9,11,11V289C80,295.1,75.1,300,69,300z"/>
<path d="M289,300H111c-6.1,0-11-4.9-11-11v-37.1c0-6.1,4.9-11,11-11h178c6.1,0,11,4.9,11,11V289C300,295.1,295.1,300,289,300z"/>
</svg>
