<svg width="745" height="368" viewBox="0 0 745 368" fill="none" xmlns="http://www.w3.org/2000/svg">
<path d="M338.6 196.9H353.4V225.3C349.6 228.167 345.2 230.367 340.2 231.9C335.2 233.433 330.167 234.2 325.1 234.2C317.833 234.2 311.3 232.667 305.5 229.6C299.7 226.467 295.133 222.167 291.8 216.7C288.533 211.167 286.9 204.933 286.9 198C286.9 191.067 288.533 184.867 291.8 179.4C295.133 173.867 299.733 169.567 305.6 166.5C311.467 163.367 318.067 161.8 325.4 161.8C331.533 161.8 337.1 162.833 342.1 164.9C347.1 166.967 351.3 169.967 354.7 173.9L344.3 183.5C339.3 178.233 333.267 175.6 326.2 175.6C321.733 175.6 317.767 176.533 314.3 178.4C310.833 180.267 308.133 182.9 306.2 186.3C304.267 189.7 303.3 193.6 303.3 198C303.3 202.333 304.267 206.2 306.2 209.6C308.133 213 310.8 215.667 314.2 217.6C317.667 219.467 321.6 220.4 326 220.4C330.667 220.4 334.867 219.4 338.6 217.4V196.9ZM413.048 233L399.548 213.5H398.748H384.648V233H368.448V163H398.748C404.948 163 410.315 164.033 414.848 166.1C419.448 168.167 422.982 171.1 425.448 174.9C427.915 178.7 429.148 183.2 429.148 188.4C429.148 193.6 427.882 198.1 425.348 201.9C422.882 205.633 419.348 208.5 414.748 210.5L430.448 233H413.048ZM412.748 188.4C412.748 184.467 411.482 181.467 408.948 179.4C406.415 177.267 402.715 176.2 397.848 176.2H384.648V200.6H397.848C402.715 200.6 406.415 199.533 408.948 197.4C411.482 195.267 412.748 192.267 412.748 188.4ZM475.884 234.2C468.617 234.2 462.05 232.633 456.184 229.5C450.384 226.367 445.817 222.067 442.484 216.6C439.217 211.067 437.584 204.867 437.584 198C437.584 191.133 439.217 184.967 442.484 179.5C445.817 173.967 450.384 169.633 456.184 166.5C462.05 163.367 468.617 161.8 475.884 161.8C483.15 161.8 489.684 163.367 495.484 166.5C501.284 169.633 505.85 173.967 509.184 179.5C512.517 184.967 514.184 191.133 514.184 198C514.184 204.867 512.517 211.067 509.184 216.6C505.85 222.067 501.284 226.367 495.484 229.5C489.684 232.633 483.15 234.2 475.884 234.2ZM475.884 220.4C480.017 220.4 483.75 219.467 487.084 217.6C490.417 215.667 493.017 213 494.884 209.6C496.817 206.2 497.784 202.333 497.784 198C497.784 193.667 496.817 189.8 494.884 186.4C493.017 183 490.417 180.367 487.084 178.5C483.75 176.567 480.017 175.6 475.884 175.6C471.75 175.6 468.017 176.567 464.684 178.5C461.35 180.367 458.717 183 456.784 186.4C454.917 189.8 453.984 193.667 453.984 198C453.984 202.333 454.917 206.2 456.784 209.6C458.717 213 461.35 215.667 464.684 217.6C468.017 219.467 471.75 220.4 475.884 220.4ZM557.459 234.2C547.459 234.2 539.659 231.433 534.059 225.9C528.525 220.367 525.759 212.467 525.759 202.2V163H541.959V201.6C541.959 214.133 547.159 220.4 557.559 220.4C562.625 220.4 566.492 218.9 569.159 215.9C571.825 212.833 573.159 208.067 573.159 201.6V163H589.159V202.2C589.159 212.467 586.359 220.367 580.759 225.9C575.225 231.433 567.459 234.2 557.459 234.2ZM635.467 163C641.667 163 647.034 164.033 651.567 166.1C656.167 168.167 659.701 171.1 662.167 174.9C664.634 178.7 665.867 183.2 665.867 188.4C665.867 193.533 664.634 198.033 662.167 201.9C659.701 205.7 656.167 208.633 651.567 210.7C647.034 212.7 641.667 213.7 635.467 213.7H621.367V233H605.167V163H635.467ZM634.567 200.5C639.434 200.5 643.134 199.467 645.667 197.4C648.201 195.267 649.467 192.267 649.467 188.4C649.467 184.467 648.201 181.467 645.667 179.4C643.134 177.267 639.434 176.2 634.567 176.2H621.367V200.5H634.567Z" fill="#2F2F2F"/>
<path d="M337.4 96H304.9L298.7 111H282.1L313.3 41H329.3L360.6 111H343.6L337.4 96ZM332.3 83.7L321.2 56.9L310.1 83.7H332.3ZM412.463 111L398.963 91.5H398.163H384.063V111H367.863V41H398.163C404.363 41 409.729 42.0333 414.263 44.1C418.863 46.1667 422.396 49.1 424.863 52.9C427.329 56.7 428.563 61.2 428.563 66.4C428.563 71.6 427.296 76.1 424.763 79.9C422.296 83.6333 418.763 86.5 414.163 88.5L429.863 111H412.463ZM412.163 66.4C412.163 62.4667 410.896 59.4667 408.363 57.4C405.829 55.2667 402.129 54.2 397.263 54.2H384.063V78.6H397.263C402.129 78.6 405.829 77.5333 408.363 75.4C410.896 73.2667 412.163 70.2667 412.163 66.4ZM475.298 112.2C468.031 112.2 461.464 110.633 455.598 107.5C449.798 104.367 445.231 100.067 441.898 94.6C438.631 89.0667 436.998 82.8667 436.998 76C436.998 69.1333 438.631 62.9667 441.898 57.5C445.231 51.9667 449.798 47.6333 455.598 44.5C461.464 41.3667 468.031 39.8 475.298 39.8C482.564 39.8 489.098 41.3667 494.898 44.5C500.698 47.6333 505.264 51.9667 508.598 57.5C511.931 62.9667 513.598 69.1333 513.598 76C513.598 82.8667 511.931 89.0667 508.598 94.6C505.264 100.067 500.698 104.367 494.898 107.5C489.098 110.633 482.564 112.2 475.298 112.2ZM475.298 98.4C479.431 98.4 483.164 97.4667 486.498 95.6C489.831 93.6667 492.431 91 494.298 87.6C496.231 84.2 497.198 80.3333 497.198 76C497.198 71.6667 496.231 67.8 494.298 64.4C492.431 61 489.831 58.3667 486.498 56.5C483.164 54.5667 479.431 53.6 475.298 53.6C471.164 53.6 467.431 54.5667 464.098 56.5C460.764 58.3667 458.131 61 456.198 64.4C454.331 67.8 453.398 71.6667 453.398 76C453.398 80.3333 454.331 84.2 456.198 87.6C458.131 91 460.764 93.6667 464.098 95.6C467.431 97.4667 471.164 98.4 475.298 98.4ZM589.473 111L589.373 69L568.773 103.6H561.473L540.973 69.9V111H525.773V41H539.173L565.373 84.5L591.173 41H604.473L604.673 111H589.473ZM667.38 96H634.88L628.68 111H612.08L643.28 41H659.28L690.58 111H673.58L667.38 96ZM662.28 83.7L651.18 56.9L640.08 83.7H662.28Z" fill="#937EBA"/>
<path d="M198.674 174.856H63.274V194.658H198.674V174.856Z" fill="#2F2F2F"/>
<path d="M57.3389 232.679L38.1254 226.738L81.0793 91.0913H132.383L174.733 226.837L155.519 232.58L117.494 110.894H95.8666L57.3389 232.679Z" fill="#937EBA"/>
<path d="M107.938 69.6056C150.087 69.6056 185.396 99.6063 193.242 138.914H214.568C206.42 88.2199 161.756 48.813 107.938 48.813C48.2854 48.813 0 96.4379 0 155.053C0 213.767 48.386 261.293 107.938 261.293C160.75 261.293 204.71 223.966 214.065 174.757H192.538C183.686 212.678 149.081 240.6 107.938 240.6C60.055 240.6 21.1249 202.282 21.1249 155.152C21.1249 108.022 60.055 69.6056 107.938 69.6056Z" fill="#2F2F2F"/>
<path d="M117.293 9.90125H97.1744V53.1696H117.293V9.90125Z" fill="#2F2F2F"/>
<path d="M139.827 0H75.7477V19.8025H139.827V0Z" fill="#2F2F2F"/>
<path d="M151.898 174.262H68.4044V194.064H151.898V174.262Z" fill="#937EBA"/>
<path d="M17.3319 319.553C14.8612 319.553 12.6286 319.021 10.6339 317.955C8.66188 316.89 7.10922 315.428 5.97588 313.569C4.86522 311.688 4.30988 309.58 4.30988 307.245C4.30988 304.911 4.86522 302.814 5.97588 300.955C7.10922 299.074 8.66188 297.601 10.6339 296.535C12.6286 295.47 14.8612 294.937 17.3319 294.937C19.8026 294.937 22.0239 295.47 23.9959 296.535C25.9679 297.601 27.5206 299.074 28.6539 300.955C29.7872 302.814 30.3539 304.911 30.3539 307.245C30.3539 309.58 29.7872 311.688 28.6539 313.569C27.5206 315.428 25.9679 316.89 23.9959 317.955C22.0239 319.021 19.8026 319.553 17.3319 319.553ZM17.3319 314.861C18.7372 314.861 20.0066 314.544 21.1399 313.909C22.2732 313.252 23.1572 312.345 23.7919 311.189C24.4492 310.033 24.7779 308.719 24.7779 307.245C24.7779 305.772 24.4492 304.457 23.7919 303.301C23.1572 302.145 22.2732 301.25 21.1399 300.615C20.0066 299.958 18.7372 299.629 17.3319 299.629C15.9266 299.629 14.6572 299.958 13.5239 300.615C12.3906 301.25 11.4952 302.145 10.8379 303.301C10.2032 304.457 9.88588 305.772 9.88588 307.245C9.88588 308.719 10.2032 310.033 10.8379 311.189C11.4952 312.345 12.3906 313.252 13.5239 313.909C14.6572 314.544 15.9266 314.861 17.3319 314.861ZM56.289 295.345V319.145H50.815V299.833H40.071V319.145H34.597V295.345H56.289ZM80.3788 299.833H72.7628V319.145H67.3228V299.833H59.7408V295.345H80.3788V299.833ZM94.8612 319.553C92.3905 319.553 90.1578 319.021 88.1632 317.955C86.1912 316.89 84.6385 315.428 83.5052 313.569C82.3945 311.688 81.8392 309.58 81.8392 307.245C81.8392 304.911 82.3945 302.814 83.5052 300.955C84.6385 299.074 86.1912 297.601 88.1632 296.535C90.1578 295.47 92.3905 294.937 94.8612 294.937C97.3318 294.937 99.5532 295.47 101.525 296.535C103.497 297.601 105.05 299.074 106.183 300.955C107.317 302.814 107.883 304.911 107.883 307.245C107.883 309.58 107.317 311.688 106.183 313.569C105.05 315.428 103.497 316.89 101.525 317.955C99.5532 319.021 97.3318 319.553 94.8612 319.553ZM94.8612 314.861C96.2665 314.861 97.5358 314.544 98.6692 313.909C99.8025 313.252 100.687 312.345 101.321 311.189C101.979 310.033 102.307 308.719 102.307 307.245C102.307 305.772 101.979 304.457 101.321 303.301C100.687 302.145 99.8025 301.25 98.6692 300.615C97.5358 299.958 96.2665 299.629 94.8612 299.629C93.4558 299.629 92.1865 299.958 91.0532 300.615C89.9198 301.25 89.0245 302.145 88.3672 303.301C87.7325 304.457 87.4152 305.772 87.4152 307.245C87.4152 308.719 87.7325 310.033 88.3672 311.189C89.0245 312.345 89.9198 313.252 91.0532 313.909C92.1865 314.544 93.4558 314.861 94.8612 314.861ZM128.616 306.735C130.067 307.166 131.178 307.869 131.948 308.843C132.719 309.818 133.104 311.019 133.104 312.447C133.104 314.555 132.3 316.199 130.69 317.377C129.104 318.556 126.826 319.145 123.856 319.145H112.126V295.345H123.21C125.976 295.345 128.129 295.878 129.67 296.943C131.212 298.009 131.982 299.527 131.982 301.499C131.982 302.678 131.688 303.721 131.098 304.627C130.509 305.511 129.682 306.214 128.616 306.735ZM117.6 305.205H122.734C123.936 305.205 124.842 304.967 125.454 304.491C126.066 303.993 126.372 303.267 126.372 302.315C126.372 301.386 126.055 300.672 125.42 300.173C124.808 299.675 123.913 299.425 122.734 299.425H117.6V305.205ZM123.652 315.065C126.236 315.065 127.528 314.045 127.528 312.005C127.528 310.033 126.236 309.047 123.652 309.047H117.6V315.065H123.652ZM137.46 295.345H142.934V310.849L154.29 295.345H159.458V319.145H154.018V303.675L142.662 319.145H137.46V295.345ZM165.384 295.345H170.858V310.849L182.214 295.345H187.382V319.145H181.942V303.675L170.586 319.145H165.384V295.345ZM176.366 293.815C172.014 293.815 169.815 292.081 169.77 288.613H173.544C173.589 290.268 174.53 291.095 176.366 291.095C177.273 291.095 177.964 290.891 178.44 290.483C178.916 290.053 179.165 289.429 179.188 288.613H182.962C182.939 290.313 182.384 291.605 181.296 292.489C180.208 293.373 178.565 293.815 176.366 293.815ZM224.629 295.345V319.145H219.155V299.833H208.411V319.145H202.937V295.345H224.629ZM241.885 319.553C239.414 319.553 237.181 319.021 235.187 317.955C233.215 316.89 231.662 315.428 230.529 313.569C229.418 311.688 228.863 309.58 228.863 307.245C228.863 304.911 229.418 302.814 230.529 300.955C231.662 299.074 233.215 297.601 235.187 296.535C237.181 295.47 239.414 294.937 241.885 294.937C244.355 294.937 246.577 295.47 248.549 296.535C250.521 297.601 252.073 299.074 253.207 300.955C254.34 302.814 254.907 304.911 254.907 307.245C254.907 309.58 254.34 311.688 253.207 313.569C252.073 315.428 250.521 316.89 248.549 317.955C246.577 319.021 244.355 319.553 241.885 319.553ZM241.885 314.861C243.29 314.861 244.559 314.544 245.693 313.909C246.826 313.252 247.71 312.345 248.345 311.189C249.002 310.033 249.331 308.719 249.331 307.245C249.331 305.772 249.002 304.457 248.345 303.301C247.71 302.145 246.826 301.25 245.693 300.615C244.559 299.958 243.29 299.629 241.885 299.629C240.479 299.629 239.21 299.958 238.077 300.615C236.943 301.25 236.048 302.145 235.391 303.301C234.756 304.457 234.439 305.772 234.439 307.245C234.439 308.719 234.756 310.033 235.391 311.189C236.048 312.345 236.943 313.252 238.077 313.909C239.21 314.544 240.479 314.861 241.885 314.861ZM270.404 319.553C267.978 319.553 265.78 319.032 263.808 317.989C261.858 316.924 260.317 315.462 259.184 313.603C258.073 311.722 257.518 309.603 257.518 307.245C257.518 304.888 258.073 302.78 259.184 300.921C260.317 299.04 261.858 297.578 263.808 296.535C265.78 295.47 267.99 294.937 270.438 294.937C272.5 294.937 274.359 295.3 276.014 296.025C277.691 296.751 279.096 297.793 280.23 299.153L276.694 302.417C275.084 300.559 273.09 299.629 270.71 299.629C269.236 299.629 267.922 299.958 266.766 300.615C265.61 301.25 264.703 302.145 264.046 303.301C263.411 304.457 263.094 305.772 263.094 307.245C263.094 308.719 263.411 310.033 264.046 311.189C264.703 312.345 265.61 313.252 266.766 313.909C267.922 314.544 269.236 314.861 270.71 314.861C273.09 314.861 275.084 313.921 276.694 312.039L280.23 315.303C279.096 316.686 277.691 317.74 276.014 318.465C274.336 319.191 272.466 319.553 270.404 319.553ZM301.777 299.833H294.161V319.145H288.721V299.833H281.139V295.345H301.777V299.833ZM320.156 314.045H309.106L306.998 319.145H301.354L311.962 295.345H317.402L328.044 319.145H322.264L320.156 314.045ZM318.422 309.863L314.648 300.751L310.874 309.863H318.422ZM348.958 295.345V319.145H343.518V310.577C341.455 311.325 339.54 311.699 337.772 311.699C334.576 311.699 332.128 310.94 330.428 309.421C328.728 307.88 327.878 305.67 327.878 302.791V295.345H333.318V302.179C333.318 303.811 333.748 305.047 334.61 305.885C335.494 306.701 336.763 307.109 338.418 307.109C340.231 307.109 341.931 306.758 343.518 306.055V295.345H348.958ZM370.99 314.045H359.94L357.832 319.145H352.188L362.796 295.345H368.236L378.878 319.145H373.098L370.99 314.045ZM369.256 309.863L365.482 300.751L361.708 309.863H369.256ZM403.45 295.345V319.145H398.01V299.833H389.85L389.68 304.797C389.566 308.175 389.294 310.917 388.864 313.025C388.433 315.111 387.708 316.72 386.688 317.853C385.69 318.964 384.285 319.519 382.472 319.519C381.724 319.519 380.817 319.395 379.752 319.145L380.092 314.487C380.386 314.578 380.715 314.623 381.078 314.623C382.392 314.623 383.31 313.853 383.832 312.311C384.353 310.747 384.682 308.311 384.818 305.001L385.158 295.345H403.45ZM420.92 303.165C423.821 303.165 426.043 303.811 427.584 305.103C429.148 306.395 429.93 308.311 429.93 310.849C429.93 313.547 429.069 315.609 427.346 317.037C425.646 318.443 423.243 319.145 420.138 319.145H409.394V295.345H414.868V303.165H420.92ZM419.832 315.065C421.26 315.065 422.371 314.714 423.164 314.011C423.98 313.309 424.388 312.289 424.388 310.951C424.388 308.481 422.869 307.245 419.832 307.245H414.868V315.065H419.832ZM455.726 295.345V319.145H450.218V309.387H439.406V319.145H433.898V295.345H439.406V304.729H450.218V295.345H455.726ZM461.689 295.345H467.163V310.849L478.519 295.345H483.687V319.145H478.247V303.675L466.891 319.145H461.689V295.345ZM498.827 309.557H495.019V319.145H489.545V295.345H495.019V304.967H498.963L505.219 295.345H511.033L503.247 306.837L511.271 319.145H505.015L498.827 309.557ZM546.071 295.345V319.145H540.563V309.387H529.751V319.145H524.243V295.345H529.751V304.729H540.563V295.345H546.071ZM568.15 314.045H557.1L554.992 319.145H549.348L559.956 295.345H565.396L576.038 319.145H570.258L568.15 314.045ZM566.416 309.863L562.642 300.751L558.868 309.863H566.416ZM600.61 295.345V319.145H595.17V299.833H587.01L586.84 304.797C586.727 308.175 586.455 310.917 586.024 313.025C585.593 315.111 584.868 316.72 583.848 317.853C582.851 318.964 581.445 319.519 579.632 319.519C578.884 319.519 577.977 319.395 576.912 319.145L577.252 314.487C577.547 314.578 577.875 314.623 578.238 314.623C579.553 314.623 580.471 313.853 580.992 312.311C581.513 310.747 581.842 308.311 581.978 305.001L582.318 295.345H600.61ZM606.554 295.345H612.028V310.849L623.384 295.345H628.552V319.145H623.112V303.675L611.756 319.145H606.554V295.345ZM650.968 306.735C652.419 307.166 653.529 307.869 654.3 308.843C655.071 309.818 655.456 311.019 655.456 312.447C655.456 314.555 654.651 316.199 653.042 317.377C651.455 318.556 649.177 319.145 646.208 319.145H634.478V295.345H645.562C648.327 295.345 650.481 295.878 652.022 296.943C653.563 298.009 654.334 299.527 654.334 301.499C654.334 302.678 654.039 303.721 653.45 304.627C652.861 305.511 652.033 306.214 650.968 306.735ZM639.952 305.205H645.086C646.287 305.205 647.194 304.967 647.806 304.491C648.418 303.993 648.724 303.267 648.724 302.315C648.724 301.386 648.407 300.672 647.772 300.173C647.16 299.675 646.265 299.425 645.086 299.425H639.952V305.205ZM646.004 315.065C648.588 315.065 649.88 314.045 649.88 312.005C649.88 310.033 648.588 309.047 646.004 309.047H639.952V315.065H646.004ZM681.64 295.345V319.145H676.132V309.387H665.32V319.145H659.812V295.345H665.32V304.729H676.132V295.345H681.64ZM687.603 295.345H693.077V310.849L704.433 295.345H709.601V319.145H704.161V303.675L692.805 319.145H687.603V295.345ZM719.811 295.345L724.741 302.553L729.671 295.345H736.131L728.209 306.735L736.777 319.145H730.283L724.741 311.257L719.267 319.145H712.909L721.409 306.973L713.453 295.345H719.811ZM27.6679 336.345V360.145H22.1939V340.833H11.4499V360.145H5.97588V336.345H27.6679ZM49.6837 355.045H38.6337L36.5257 360.145H30.8817L41.4897 336.345H46.9297L57.5717 360.145H51.7917L49.6837 355.045ZM47.9497 350.863L44.1757 341.751L40.4017 350.863H47.9497ZM71.0298 336.345C73.1378 336.345 74.9625 336.697 76.5038 337.399C78.0678 338.102 79.2692 339.099 80.1078 340.391C80.9465 341.683 81.3658 343.213 81.3658 344.981C81.3658 346.727 80.9465 348.257 80.1078 349.571C79.2692 350.863 78.0678 351.861 76.5038 352.563C74.9625 353.243 73.1378 353.583 71.0298 353.583H66.2358V360.145H60.7278V336.345H71.0298ZM70.7238 349.095C72.3785 349.095 73.6365 348.744 74.4978 348.041C75.3592 347.316 75.7898 346.296 75.7898 344.981C75.7898 343.644 75.3592 342.624 74.4978 341.921C73.6365 341.196 72.3785 340.833 70.7238 340.833H66.2358V349.095H70.7238ZM113.517 348.177C113.517 351.328 112.441 353.81 110.287 355.623C108.157 357.414 105.085 358.411 101.073 358.615V361.199H96.0074V358.581C91.9727 358.355 88.8787 357.346 86.7254 355.555C84.5947 353.742 83.5294 351.283 83.5294 348.177C83.5294 345.049 84.5947 342.601 86.7254 340.833C88.8787 339.043 91.9727 338.023 96.0074 337.773V335.325H101.073V337.739C105.085 337.966 108.157 338.986 110.287 340.799C112.441 342.613 113.517 345.072 113.517 348.177ZM101.073 354.297C103.476 354.071 105.267 353.459 106.445 352.461C107.624 351.441 108.213 350.002 108.213 348.143C108.213 344.517 105.833 342.499 101.073 342.091V354.297ZM88.8674 348.177C88.8674 351.759 91.2474 353.799 96.0074 354.297V342.091C93.582 342.318 91.78 342.93 90.6014 343.927C89.4454 344.902 88.8674 346.319 88.8674 348.177ZM138.263 336.345L128.131 355.181C127.156 356.995 125.977 358.366 124.595 359.295C123.235 360.225 121.75 360.689 120.141 360.689C118.894 360.689 117.602 360.417 116.265 359.873L117.591 355.691C118.543 355.986 119.336 356.133 119.971 356.133C120.651 356.133 121.263 355.975 121.807 355.657C122.351 355.317 122.849 354.796 123.303 354.093L123.507 353.821L114.123 336.345H120.005L126.329 349.129L132.857 336.345H138.263ZM162.538 360.145L162.504 345.899L155.5 357.629H153.052L146.048 346.171V360.145H140.88V336.345H145.436L154.344 351.135L163.116 336.345H167.672L167.706 360.145H162.538ZM173.618 336.345H179.092V360.145H173.618V336.345ZM201.497 347.735C202.948 348.166 204.058 348.869 204.829 349.843C205.6 350.818 205.985 352.019 205.985 353.447C205.985 355.555 205.18 357.199 203.571 358.377C201.984 359.556 199.706 360.145 196.737 360.145H185.007V336.345H196.091C198.856 336.345 201.01 336.878 202.551 337.943C204.092 339.009 204.863 340.527 204.863 342.499C204.863 343.678 204.568 344.721 203.979 345.627C203.39 346.511 202.562 347.214 201.497 347.735ZM190.481 346.205H195.615C196.816 346.205 197.723 345.967 198.335 345.491C198.947 344.993 199.253 344.267 199.253 343.315C199.253 342.386 198.936 341.672 198.301 341.173C197.689 340.675 196.794 340.425 195.615 340.425H190.481V346.205ZM196.533 356.065C199.117 356.065 200.409 355.045 200.409 353.005C200.409 351.033 199.117 350.047 196.533 350.047H190.481V356.065H196.533ZM238.16 340.833H230.544V360.145H225.104V340.833H217.522V336.345H238.16V340.833ZM256.539 355.045H245.489L243.381 360.145H237.737L248.345 336.345H253.785L264.427 360.145H258.647L256.539 355.045ZM254.805 350.863L251.031 341.751L247.257 350.863H254.805ZM293.328 355.045H282.278L280.17 360.145H274.526L285.134 336.345H290.574L301.216 360.145H295.436L293.328 355.045ZM291.594 350.863L287.82 341.751L284.046 350.863H291.594ZM313.586 350.557H309.778V360.145H304.304V336.345H309.778V345.967H313.722L319.978 336.345H325.792L318.006 347.837L326.03 360.145H319.774L313.586 350.557ZM339.765 360.553C337.34 360.553 335.141 360.032 333.169 358.989C331.22 357.924 329.678 356.462 328.545 354.603C327.434 352.722 326.879 350.603 326.879 348.245C326.879 345.888 327.434 343.78 328.545 341.921C329.678 340.04 331.22 338.578 333.169 337.535C335.141 336.47 337.351 335.937 339.799 335.937C341.862 335.937 343.72 336.3 345.375 337.025C347.052 337.751 348.458 338.793 349.591 340.153L346.055 343.417C344.446 341.559 342.451 340.629 340.071 340.629C338.598 340.629 337.283 340.958 336.127 341.615C334.971 342.25 334.064 343.145 333.407 344.301C332.772 345.457 332.455 346.772 332.455 348.245C332.455 349.719 332.772 351.033 333.407 352.189C334.064 353.345 334.971 354.252 336.127 354.909C337.283 355.544 338.598 355.861 340.071 355.861C342.451 355.861 344.446 354.921 346.055 353.039L349.591 356.303C348.458 357.686 347.052 358.74 345.375 359.465C343.698 360.191 341.828 360.553 339.765 360.553ZM371.609 355.725V360.145H353.181V336.345H371.167V340.765H358.655V345.933H369.705V350.217H358.655V355.725H371.609ZM387.246 360.553C384.82 360.553 382.622 360.032 380.65 358.989C378.7 357.924 377.159 356.462 376.026 354.603C374.915 352.722 374.36 350.603 374.36 348.245C374.36 345.888 374.915 343.78 376.026 341.921C377.159 340.04 378.7 338.578 380.65 337.535C382.622 336.47 384.832 335.937 387.28 335.937C389.342 335.937 391.201 336.3 392.856 337.025C394.533 337.751 395.938 338.793 397.072 340.153L393.536 343.417C391.926 341.559 389.932 340.629 387.552 340.629C386.078 340.629 384.764 340.958 383.608 341.615C382.452 342.25 381.545 343.145 380.888 344.301C380.253 345.457 379.936 346.772 379.936 348.245C379.936 349.719 380.253 351.033 380.888 352.189C381.545 353.345 382.452 354.252 383.608 354.909C384.764 355.544 386.078 355.861 387.552 355.861C389.932 355.861 391.926 354.921 393.536 353.039L397.072 356.303C395.938 357.686 394.533 358.74 392.856 359.465C391.178 360.191 389.308 360.553 387.246 360.553ZM421.685 336.345L411.553 355.181C410.578 356.995 409.399 358.366 408.017 359.295C406.657 360.225 405.172 360.689 403.563 360.689C402.316 360.689 401.024 360.417 399.687 359.873L401.013 355.691C401.965 355.986 402.758 356.133 403.393 356.133C404.073 356.133 404.685 355.975 405.229 355.657C405.773 355.317 406.271 354.796 406.725 354.093L406.929 353.821L397.545 336.345H403.427L409.751 349.129L416.279 336.345H421.685ZM439.621 355.045H428.571L426.463 360.145H420.819L431.427 336.345H436.867L447.509 360.145H441.729L439.621 355.045ZM437.887 350.863L434.113 341.751L430.339 350.863H437.887ZM460.967 336.345C463.075 336.345 464.9 336.697 466.441 337.399C468.005 338.102 469.207 339.099 470.045 340.391C470.884 341.683 471.303 343.213 471.303 344.981C471.303 346.727 470.884 348.257 470.045 349.571C469.207 350.863 468.005 351.861 466.441 352.563C464.9 353.243 463.075 353.583 460.967 353.583H456.173V360.145H450.665V336.345H460.967ZM460.661 349.095C462.316 349.095 463.574 348.744 464.435 348.041C465.297 347.316 465.727 346.296 465.727 344.981C465.727 343.644 465.297 342.624 464.435 341.921C463.574 341.196 462.316 340.833 460.661 340.833H456.173V349.095H460.661ZM474.937 336.345H480.411V360.145H474.937V336.345ZM502.815 347.735C504.266 348.166 505.377 348.869 506.147 349.843C506.918 350.818 507.303 352.019 507.303 353.447C507.303 355.555 506.499 357.199 504.889 358.377C503.303 359.556 501.025 360.145 498.055 360.145H486.325V336.345H497.409C500.175 336.345 502.328 336.878 503.869 337.943C505.411 339.009 506.181 340.527 506.181 342.499C506.181 343.678 505.887 344.721 505.297 345.627C504.708 346.511 503.881 347.214 502.815 347.735ZM491.799 346.205H496.933C498.135 346.205 499.041 345.967 499.653 345.491C500.265 344.993 500.571 344.267 500.571 343.315C500.571 342.386 500.254 341.672 499.619 341.173C499.007 340.675 498.112 340.425 496.933 340.425H491.799V346.205ZM497.851 356.065C500.435 356.065 501.727 355.045 501.727 353.005C501.727 351.033 500.435 350.047 497.851 350.047H491.799V356.065H497.851Z" fill="black"/>
</svg>
